<?xml version="1.0" encoding="UTF-8"?><svg id="Layer_2" xmlns="http://www.w3.org/2000/svg" viewBox="0 0 73.7 87.6"><defs><style>.cls-1{fill:#0057ff;}</style></defs><g id="Layer_1-2"><path class="cls-1" d="M73.3,54c-.3,0,.3,5.6-3.3,8.7-1.6,1.4-3.3,1.9-4.3,2.1.2-2.7-.5-5.4-2.9-6.8-2.2-1.3-5.4-.7-6.9,1.5-1.5,2.1-1.1,5.4,1,7,2.2,1.8,5.4,1.4,7.1.9,0,0,0,0,0,0-.3.9-.7,1.8-1.1,2.7-3.3,7-8.2,12.1-13.9,14.5-2.3.9-4.3,1.2-6,.9-2.1-.4-3.9-1.8-4.4-3.6-.5-1.7,0-3.7,1.6-6,2-3,4.6-5.5,7.2-8,.5-.5,1-.9,1.5-1.4,3.1-3,6.2-6.3,7.8-10.4,1.8-4.6,1.3-9.6-1.4-12.7-3.1-3.6-8.1-4.4-11.9-4.4s-.6,0-.9,0c0-.9,0-1.8.1-2.6,0-4.5-.4-8-1.6-11-1.5-3.9-4.3-6.8-7.6-8.2-1.6-.7-3.3-.9-4.9-.9-.5-3.8-1.5-7.5-3.1-10.9-.2-.5-.5-1-.7-1.4l-2-3.8,1.1,4.1c1.1,4.3,1.7,8.4,1.7,12.3-2.8.6-5.2,1.8-6.9,2.8-4.6,2.7-8.6,6.5-11.5,11-1.9,3-3,5.7-3.1,8.3-.2,3.3,1.2,6.4,3.5,8.1,2.5,1.7,6.2,1.8,9.3.1,2.4-1.3,4.6-3.5,6.6-6.7,3.6-5.8,5.4-12.8,5.3-19.7.2,0,.4,0,.6,0,2.6.4,10.1,3,9.5,18.8-7.4,1-14.4,4.5-19.7,9.7-3.6-1-7.4,1.3-8.9,2.5C3.1,56.9-1.1,66.8.2,75.9c.6,4.4,2.5,7.9,5.3,9.8,3.2,2.2,8,2.3,12.1.2,3.9-1.9,6.8-5.2,9.1-8.2,8.6-10.9,14-23.4,15.5-35.7,1.2,0,2.5.2,3.7.5,2.9.6,4.8,1.7,5.8,3.3,1,1.6,1.1,3.8.3,5.9-.7,2-2.1,3.8-3.4,5.4l-8.1,10.5c-1.7,2.2-3.5,4.5-4.5,7.2-1.2,3.1-1,6.2.4,8.6,1.5,2.6,4.6,4.1,8,4.1s.5,0,.7,0c2.9-.2,5.9-1.4,9-3.7,5.2-3.8,9.1-9.3,11-15.5.1-.5.3-1,.4-1.5,1.3-.3,4.5-1.3,6.5-4.3,2.7-3.9,1.7-8.6,1.4-8.7ZM59.8,65c-1.1-.5-2.2-1.7-2-3,0-.7.5-1.3,1.2-1.7.5-.3,1.1-.5,1.7-.5s.7,0,1,.2c1.8.7,2.7,2.7,2.7,4.4,0,.2,0,.4,0,.7-.2,0-.3,0-.5.1-1.7.3-3.1.3-4.2-.2ZM17,50.4c.3,0,.6,0,.9,0-1.3,1.5-2.6,3.1-3.6,4.9-1.2,1.9-2.8,5.6-.8,8.2,1.3,1.8,4,2.3,6.3,1.3,1.8-.9,3.3-2.6,4.1-5,1.2-3.3.5-7.7-2.3-9.9,4.6-4.4,10.9-7.3,17.3-7.8-.1,1.2-.3,2.5-.5,3.9-1.6,10.5-6.2,21.2-12.9,30.1-1.9,2.5-4.5,5.6-7.9,7.3-3.5,1.8-7.3,1.8-10.1.2-2.8-1.7-4.6-5.1-5.1-9.6-.8-7.9,2.6-16.2,8.8-21.1,1.5-1.2,3.6-2.5,5.8-2.5ZM22.4,55.7c.2,2.4-.9,4.8-3,6.5-.8.7-1.6,1-2.2.9-1.1-.1-1.8-1.2-1.9-2.3-.1-1.2.4-2.4.9-3.5,1-2.1,2.4-4.1,3.9-5.9,1.3,1,2.2,2.5,2.3,4.2ZM25,24.2c-1.3,7-4.6,13.2-9.3,17.4-1.9,1.7-3.5,2.3-4.9,1.8-2.7-.9-2.5-4.8-1.8-7.1,1.6-5,4.7-9.4,8.9-12.5,1.6-1.2,4.3-2.9,7.5-3.4-.1,1.3-.3,2.6-.5,3.8Z"/></g></svg>